HIERARCHY
ROOT hip
{
  OFFSET 0 0 0
  CHANNELS 6 Xposition Yposition Zposition Zrotation Yrotation Xrotation
  JOINT abdomen
  {
    OFFSET 0 20.6881 -0.73152
    CHANNELS 3 Zrotation Xrotation Yrotation
    JOINT chest
    {
      OFFSET 0 11.7043 -0.48768
      CHANNELS 3 Zrotation Xrotation Yrotation
      JOINT neck
      {
        OFFSET 0 22.1894 -2.19456
        CHANNELS 3 Zrotation Xrotation Yrotation
        JOINT head
        {
          OFFSET -0.24384 7.07133 1.2192
          CHANNELS 3 Zrotation Xrotation Yrotation
          JOINT leftEye
          {
            OFFSET 4.14528 8.04674 8.04672
            CHANNELS 3 Zrotation Xrotation Yrotation
            End Site
            {
              OFFSET 1 0 0
            }
          }
          JOINT rightEye
          {
            OFFSET -3.6576 8.04674 8.04672
            CHANNELS 3 Zrotation Xrotation Yrotation
            End Site
            {
              OFFSET 1 0 0
            }
          }
        }
      }
      JOINT rCollar
      {
        OFFSET -2.68224 19.2634 -4.8768
        CHANNELS 3 Zrotation Xrotation Yrotation
        JOINT rShldr
        {
          OFFSET -8.77824 -1.95073 1.46304
          CHANNELS 3 Zrotation Xrotation Yrotation
          JOINT rForeArm
          {
            OFFSET -28.1742 -1.7115 0.48768
            CHANNELS 3 Zrotation Xrotation Yrotation
            JOINT rHand
            {
              OFFSET -22.5879 0.773209 7.07136
              CHANNELS 3 Zrotation Xrotation Yrotation
              JOINT rThumb1
              {
                OFFSET -1.2192 -0.487915 3.41376
                CHANNELS 3 Zrotation Xrotation Yrotation
                JOINT rThumb2
                {
                  OFFSET -3.37035 -0.52449 3.41376
                  CHANNELS 3 Zrotation Xrotation Yrotation
                  End Site
                  {
                    OFFSET -1.78271 -1.18214 1.43049
                  }
                }
              }
              JOINT rIndex1
              {
                OFFSET -7.75947 0.938293 5.60832
                CHANNELS 3 Zrotation Xrotation Yrotation
                JOINT rIndex2
                {
                  OFFSET -2.54057 -0.884171 1.56538
                  CHANNELS 3 Zrotation Xrotation Yrotation
                  End Site
                  {
                    OFFSET -1.62519 -0.234802 1.16502
                  }
                }
              }
              JOINT rMid1
              {
                OFFSET -8.24714 1.18213 3.41376
                CHANNELS 3 Zrotation Xrotation Yrotation
                JOINT rMid2
                {
                  OFFSET -3.10165 -0.590103 1.0647
                  CHANNELS 3 Zrotation Xrotation Yrotation
                  End Site
                  {
                    OFFSET -2.48547 -0.328903 0.83742
                  }
                }
              }
              JOINT rRing1
              {
                OFFSET -8.82822 0.546677 1.51678
                CHANNELS 3 Zrotation Xrotation Yrotation
                JOINT rRing2
                {
                  OFFSET -2.60934 -0.819778 -0.0198488
                  CHANNELS 3 Zrotation Xrotation Yrotation
                  End Site
                  {
                    OFFSET -2.33842 -0.294052 0.168128
                  }
                }
              }
              JOINT rPinky1
              {
                OFFSET -8.27202 -0.0477905 -0.4584
                CHANNELS 3 Zrotation Xrotation Yrotation
                JOINT rPinky2
                {
                  OFFSET -1.82734 -0.647385 -0.700984
                  CHANNELS 3 Zrotation Xrotation Yrotation
                  End Site
                  {
                    OFFSET -1.69225 -0.51767 -0.607171
                  }
                }
              }
            }
          }
        }
      }
      JOINT lCollar
      {
        OFFSET 2.68224 19.2634 -4.8768
        CHANNELS 3 Zrotation Xrotation Yrotation
        JOINT lShldr
        {
          OFFSET 8.77824 -1.95073 1.46304
          CHANNELS 3 Zrotation Xrotation Yrotation
          JOINT lForeArm
          {
            OFFSET 28.1742 -1.7115 0.48768
            CHANNELS 3 Zrotation Xrotation Yrotation
            JOINT lHand
            {
              OFFSET 22.5879 0.773209 7.07136
              CHANNELS 3 Zrotation Xrotation Yrotation
              JOINT lThumb1
              {
                OFFSET 1.2192 -0.487915 3.41376
                CHANNELS 3 Zrotation Xrotation Yrotation
                JOINT lThumb2
                {
                  OFFSET 3.37035 -0.52449 3.41376
                  CHANNELS 3 Zrotation Xrotation Yrotation
                  End Site
                  {
                    OFFSET 1.78271 -1.18214 1.43049
                  }
                }
              }
              JOINT lIndex1
              {
                OFFSET 7.75947 0.938293 5.60832
                CHANNELS 3 Zrotation Xrotation Yrotation
                JOINT lIndex2
                {
                  OFFSET 2.54057 -0.884171 1.56538
                  CHANNELS 3 Zrotation Xrotation Yrotation
                  End Site
                  {
                    OFFSET 1.62519 -0.234802 1.16502
                  }
                }
              }
              JOINT lMid1
              {
                OFFSET 8.24714 1.18213 3.41376
                CHANNELS 3 Zrotation Xrotation Yrotation
                JOINT lMid2
                {
                  OFFSET 3.10165 -0.590103 1.0647
                  CHANNELS 3 Zrotation Xrotation Yrotation
                  End Site
                  {
                    OFFSET 2.48547 -0.328903 0.83742
                  }
                }
              }
              JOINT lRing1
              {
                OFFSET 8.82822 0.546677 1.51678
                CHANNELS 3 Zrotation Xrotation Yrotation
                JOINT lRing2
                {
                  OFFSET 2.60934 -0.819778 -0.0198488
                  CHANNELS 3 Zrotation Xrotation Yrotation
                  End Site
                  {
                    OFFSET 2.33842 -0.294052 0.168128
                  }
                }
              }
              JOINT lPinky1
              {
                OFFSET 8.27202 -0.0477905 -0.4584
                CHANNELS 3 Zrotation Xrotation Yrotation
                JOINT lPinky2
                {
                  OFFSET 1.82734 -0.647385 -0.700984
                  CHANNELS 3 Zrotation Xrotation Yrotation
                  End Site
                  {
                    OFFSET 1.69225 -0.51767 -0.607171
                  }
                }
              }
            }
          }
        }
      }
    }
  }
  JOINT rButtock
  {
    OFFSET -8.77824 4.35084 1.2192
    CHANNELS 3 Zrotation Xrotation Yrotation
    JOINT rThigh
    {
      OFFSET 0 -1.70687 -2.19456
      CHANNELS 3 Zrotation Xrotation Yrotation
      JOINT rShin
      {
        OFFSET 0 -36.8199 0.73152
        CHANNELS 3 Zrotation Xrotation Yrotation
        JOINT rFoot
        {
          OFFSET 0.73152 -45.1104 -5.12064
          CHANNELS 3 Zrotation Xrotation Yrotation
          End Site
          {
            OFFSET -1.1221 -3.69964 12.103
          }
        }
      }
    }
  }
  JOINT lButtock
  {
    OFFSET 8.77824 4.35084 1.2192
    CHANNELS 3 Zrotation Xrotation Yrotation
    JOINT lThigh
    {
      OFFSET 0 -1.70687 -2.19456
      CHANNELS 3 Zrotation Xrotation Yrotation
      JOINT lShin
      {
        OFFSET 0 -36.8199 0.73152
        CHANNELS 3 Zrotation Xrotation Yrotation
        JOINT lFoot
        {
          OFFSET -0.73152 -45.1104 -5.12064
          CHANNELS 3 Zrotation Xrotation Yrotation
          End Site
          {
            OFFSET 1.1221 -3.69964 12.103
          }
        }
      }
    }
  }
}
MOTION
Frames:	6
Frame Time:	0.00833333
25.0481 82.1587 8.24676 -1.4011 -10.8642 -4.0045 0.0479733 20.8457 3.31334 3.52459 -8.11289 0.968513 -5.09833 10.3972 -6.71708 0.725132 9.87057 -12.7058 -0.0 0.0 0.0 -0.0 0.0 0.0 2.68492e-14 -1.17706e-13 -2.1944e-13 68.3012 -36.5918 -13.7351 -23.15 -17.5921 46.9967 -3.84504 -47.3491 -8.76901 -4.19722e-10 -9.81424e-11 -9.64081e-10 -6.87372e-10 -1.9933e-10 -1.67885e-09 -4.19721e-10 -9.81424e-11 -9.64089e-10 7.73091 5.47488 0.417314 -4.19724e-10 -9.81417e-11 -9.64079e-10 2.90554 0.965183 0.102902 -4.19719e-10 -9.81417e-11 -9.64083e-10 10.2786 0.731801 0.0259123 -4.19728e-10 -9.81408e-11 -9.64075e-10 2.22167 -0.733487 -0.20892 2.70201e-14 -1.17703e-13 -2.19591e-13 -82.7541 4.25903 19.4352 14.3377 -7.22902 -26.2389 0.0165842 -3.6517 0.513932 -5.97383e-10 1.69754e-09 -1.54037e-09 -1.02714e-09 2.94154e-09 -2.66802e-09 -5.97393e-10 1.69754e-09 -1.54035e-09 -7.73091 5.47488 -0.417314 -5.97384e-10 1.69754e-09 -1.54037e-09 -2.90554 0.965183 -0.102902 -5.97397e-10 1.69754e-09 -1.54036e-09 -10.2786 0.731801 -0.0259123 -5.97381e-10 1.69754e-09 -1.54037e-09 -2.22167 -0.733487 0.20892 -2.03217e-16 0.0 -3.88251e-19 1.68887 -3.12416 2.29129 -0.735414 51.7978 0.814528 -0.966568 23.0072 2.31033 2.03217e-16 0.0 3.88251e-19 -5.0161 -31.0139 -9.55095 0.33819 36.827 0.135999 0.323828 2.2099 3.06726
25.0891 82.0903 9.47142 -1.1972 -11.5229 -4.2324 -0.773038 21.0196 3.53166 3.53546 -8.0051 0.962594 -5.09842 10.0729 -6.5077 0.69621 9.88444 -12.2885 -0.0 0.0 0.0 -0.0 0.0 0.0 2.51051e-14 -1.16491e-13 -3.22199e-13 67.979 -36.689 -14.504 -23.6668 -18.493 48.5562 -4.22531 -48.9652 -9.28214 -6.43184e-10 -1.42489e-10 -6.12353e-10 -1.0856e-09 -2.79927e-10 -1.08172e-09 -6.43182e-10 -1.4249e-10 -6.1236e-10 7.73091 5.47488 0.417314 -6.43185e-10 -1.42489e-10 -6.12353e-10 2.90554 0.965183 0.102902 -6.43179e-10 -1.42489e-10 -6.12358e-10 10.2786 0.731801 0.0259123 -6.4319e-10 -1.42487e-10 -6.12353e-10 2.22167 -0.733487 -0.20892 2.52015e-14 -1.16483e-13 -3.22432e-13 -82.7589 4.25976 19.3762 14.356 -7.24297 -26.2784 0.0167604 -3.65773 0.514792 -2.63215e-10 2.65163e-09 -1.76657e-09 -4.46978e-10 4.59374e-09 -3.05969e-09 -2.63226e-10 2.65163e-09 -1.76656e-09 -7.73091 5.47488 -0.417314 -2.63215e-10 2.65163e-09 -1.76657e-09 -2.90554 0.965183 -0.102902 -2.63223e-10 2.65163e-09 -1.76656e-09 -10.2786 0.731801 -0.0259123 -2.63208e-10 2.65163e-09 -1.76657e-09 -2.22167 -0.733487 0.20892 -2.03217e-16 0.0 -3.88251e-19 0.894331 -4.9574 2.70611 -0.865922 54.5809 0.899271 -0.792354 26.9838 1.52767 2.03217e-16 0.0 3.88251e-19 -5.43419 -30.4673 -8.70723 0.35485 37.7225 0.144673 0.35161 1.10746 3.03032
25.2233 82.0318 10.6939 -0.5951 -11.9891 -4.601 -1.62325 21.1993 3.73265 3.56505 -7.90996 0.952317 -5.09352 9.74631 -6.28302 0.623253 9.92069 -11.8366 -0.0 0.0 0.0 -0.0 0.0 0.0 2.03739e-14 -1.13487e-13 -4.04933e-13 67.6685 -36.6908 -15.2068 -24.1662 -19.4148 50.1448 -4.62784 -50.4922 -9.80693 -8.23166e-10 -1.77464e-10 -2.41556e-10 -1.40964e-09 -3.42272e-10 -4.49991e-10 -8.23163e-10 -1.77465e-10 -2.41563e-10 7.73091 5.47488 0.417314 -8.23167e-10 -1.77465e-10 -2.41558e-10 2.90554 0.965183 0.102902 -8.23159e-10 -1.77465e-10 -2.41563e-10 10.2786 0.731801 0.0259123 -8.23173e-10 -1.77462e-10 -2.41561e-10 2.22167 -0.733487 -0.20892 2.03876e-14 -1.13474e-13 -4.05243e-13 -82.7869 4.35897 19.3338 14.427 -7.30204 -26.4222 0.0175394 -3.74902 0.527673 6.11792e-11 3.43155e-09 -1.89954e-09 1.1572e-10 5.94426e-09 -3.2899e-09 6.11673e-11 3.43155e-09 -1.89953e-09 -7.73091 5.47488 -0.417314 6.11809e-11 3.43155e-09 -1.89954e-09 -2.90554 0.965183 -0.102902 6.11765e-11 3.43155e-09 -1.89954e-09 -10.2786 0.731801 -0.0259123 6.11913e-11 3.43155e-09 -1.89955e-09 -2.22167 -0.733487 0.20892 -2.03217e-16 0.0 -3.88251e-19 0.155422 -6.79945 3.1262 -1.01438 57.309 1.00027 -0.344639 30.3183 0.332068 2.03217e-16 0.0 3.88251e-19 -5.84486 -29.8032 -7.82122 0.367304 38.4478 0.150644 0.386177 -0.0475216 3.02184
25.3683 82.0075 11.8981 0.1196 -12.1819 -4.9828 -2.50907 21.3617 3.82017 3.63438 -7.85296 0.915439 -5.08716 9.55134 -6.03578 0.517124 9.8268 -11.3445 -0.0 0.0 0.0 -0.0 0.0 0.0 9.9326e-15 -1.04966e-13 -4.02141e-13 67.3957 -36.629 -15.7516 -24.6452 -20.3547 51.7205 -4.88345 -51.3778 -10.1318 -8.17849e-10 -1.72286e-10 -1.81196e-11 -1.40885e-09 -3.29932e-10 -6.47807e-11 -8.17846e-10 -1.72287e-10 -1.8126e-11 7.73091 5.47488 0.417314 -8.1785e-10 -1.72287e-10 -1.81228e-11 2.90554 0.965183 0.102902 -8.17842e-10 -1.72287e-10 -1.81276e-11 10.2786 0.731801 0.0259123 -8.17857e-10 -1.72284e-10 -1.8126e-11 2.22167 -0.733487 -0.20892 9.89673e-15 -1.0495e-13 -4.02489e-13 -82.8301 4.58091 19.319 14.557 -7.41278 -26.6817 0.0189544 -3.92734 0.552827 2.43192e-10 3.44331e-09 -1.7757e-09 4.30065e-10 5.96434e-09 -3.07534e-09 2.4318e-10 3.44331e-09 -1.7757e-09 -7.73091 5.47488 -0.417314 2.43195e-10 3.44331e-09 -1.77571e-09 -2.90554 0.965183 -0.102902 2.43192e-10 3.44331e-09 -1.77571e-09 -10.2786 0.731801 -0.0259123 2.43206e-10 3.44331e-09 -1.77572e-09 -2.22167 -0.733487 0.20892 -2.03217e-16 0.0 -3.88251e-19 -0.618352 -8.63434 3.35865 -1.1824 59.9428 1.12613 0.302658 32.4092 -1.12444 2.03217e-16 0.0 3.88251e-19 -6.3451 -29.0168 -7.03416 0.372594 38.9246 0.150666 0.421137 -1.07981 2.98637
25.4857 82.0372 13.0629 0.7948 -12.3921 -5.2957 -3.53204 21.5126 3.78352 3.77096 -7.84809 0.846141 -5.10106 9.54181 -5.75536 0.405748 9.51664 -10.7958 -0.0 0.0 0.0 -0.0 0.0 0.0 -8.60422e-15 -8.24787e-14 -2.57482e-13 67.1726 -36.4891 -16.0933 -25.0954 -21.3017 53.2839 -4.90304 -51.431 -10.1546 -5.19265e-10 -9.89322e-11 -1.2728e-11 -8.9436e-10 -1.90716e-10 -4.35522e-11 -5.19261e-10 -9.89319e-11 -1.27349e-11 7.73091 5.47488 0.417314 -5.19265e-10 -9.89327e-11 -1.27304e-11 2.90554 0.965183 0.102902 -5.19257e-10 -9.89325e-11 -1.27343e-11 10.2786 0.731801 0.0259123 -5.19272e-10 -9.893e-11 -1.27309e-11 2.22167 -0.733487 -0.20892 -8.64062e-15 -8.24624e-14 -2.57809e-13 -82.9006 4.98045 19.3544 14.7683 -7.59426 -27.1072 0.0217092 -4.23936 0.596873 1.91244e-10 2.19565e-09 -1.19042e-09 3.36236e-10 3.80305e-09 -2.06166e-09 1.91233e-10 2.19565e-09 -1.19042e-09 -7.73091 5.47488 -0.417314 1.91247e-10 2.19565e-09 -1.19043e-09 -2.90554 0.965183 -0.102902 1.91243e-10 2.19565e-09 -1.19043e-09 -10.2786 0.731801 -0.0259123 1.91256e-10 2.19565e-09 -1.19044e-09 -2.22167 -0.733487 0.20892 -2.03217e-16 0.0 -3.88251e-19 -1.5328 -10.4992 3.36969 -1.38739 62.5459 1.28955 1.12941 32.9322 -2.99 2.03217e-16 0.0 3.88251e-19 -6.99077 -28.078 -6.3179 0.368631 39.0815 0.144257 0.455133 -1.96524 2.91941
25.6126 82.1117 14.2152 1.5518 -12.5842 -5.5937 -4.6542 21.6604 3.66852 3.95616 -7.87934 0.756229 -5.12878 9.64037 -5.44804 0.281414 9.08521 -10.1998 -0.0 0.0 0.0 -0.0 0.0 0.0 -3.32313e-14 -5.04985e-14 -1.88473e-14 66.987 -36.2652 -16.2865 -25.5159 -22.2546 54.8627 -4.77132 -50.9628 -9.98508 -2.64317e-11 1.95764e-11 -1.27851e-10 -4.05346e-11 3.28963e-11 -2.22203e-10 -2.64277e-11 1.95779e-11 -1.27859e-10 7.73091 5.47488 0.417314 -2.64327e-11 1.95762e-11 -1.27852e-10 2.90554 0.965183 0.102902 -2.64243e-11 1.95766e-11 -1.27854e-10 10.2786 0.731801 0.0259123 -2.64385e-11 1.95782e-11 -1.27847e-10 2.22167 -0.733487 -0.20892 -3.32427e-14 -5.04834e-14 -1.91175e-14 -82.9991 5.52812 19.4293 15.0469 -7.83453 -27.6778 0.0262632 -4.66873 0.657574 -5.20123e-12 1.16311e-10 -2.84616e-10 -9.87288e-12 2.01236e-10 -4.92898e-10 -5.2105e-12 1.16312e-10 -2.84611e-10 -7.73091 5.47488 -0.417314 -5.19944e-12 1.16312e-10 -2.84617e-10 -2.90554 0.965183 -0.102902 -5.20636e-12 1.16311e-10 -2.84617e-10 -10.2786 0.731801 -0.0259123 -5.19493e-12 1.16311e-10 -2.84629e-10 -2.22167 -0.733487 0.20892 -2.03217e-16 0.0 -3.88251e-19 -2.53432 -12.39 3.25397 -1.6373 65.1144 1.49642 2.02729 32.2383 -5.20965 2.03217e-16 0.0 3.88251e-19 -7.72826 -26.9994 -5.6235 0.357531 38.9771 0.132937 0.491265 -2.78975 2.84675
